<?xml version="1.0" encoding="UTF-8" standalone="no"?>
<!DOCTYPE svg PUBLIC "-//W3C//DTD SVG 1.1//EN" "http://www.w3.org/Graphics/SVG/1.1/DTD/svg11.dtd">
<!-- Created with Vectornator (http://vectornator.io/) -->
<svg height="100%" stroke-miterlimit="10" style="fill-rule:nonzero;clip-rule:evenodd;stroke-linecap:round;stroke-linejoin:round;" version="1.1" viewBox="5185.6 179.694 100.579 145.364" width="100%" xml:space="preserve" xmlns="http://www.w3.org/2000/svg" xmlns:vectornator="http://vectornator.io" xmlns:xlink="http://www.w3.org/1999/xlink">
<defs/>
<clipPath id="ArtboardFrame">
<rect height="145.364" width="100.579" x="5185.6" y="179.694"/>
</clipPath>
<g clip-path="url(#ArtboardFrame)" id="Layer" vectornator:layerName="Layer">
<g opacity="1" vectornator:layerName="Группа 6">
<path d="M5250.11 289.384C5250.11 289.384 5234.19 292.038 5228.26 298.495L5227.25 297.832L5223.04 300.839L5222.95 299.512L5220.79 300.972L5220.43 300.132L5218.58 300.839L5218.71 300.309L5214.64 300.132L5216.81 299.203L5213.8 298.584L5214.46 298.318L5210.66 299.026L5211.19 298.406L5206.59 297.477L5208.09 296.239L5201.55 294.249L5202.74 293.055L5196.29 291.33L5198.01 290.932L5193.45 289.251L5194.47 288.853L5190.05 285.668L5193.55 285.094L5194.45 284.032L5196.07 283.501L5195.81 283.037L5196.9 282.373L5195.88 281.577L5197.37 281.113L5196.13 279.631L5197.04 279.565L5194.38 277.265L5196.68 275.805L5195.16 274.611L5195.58 274.235L5191.97 272.333L5193.79 270.918L5188.39 266.849L5189.89 266.185L5187.33 263.465L5188.43 263.222L5185.6 259.705L5189.1 260.723L5192.81 259.396L5192.55 257.162L5194.74 256.986L5192.9 252.982L5195.11 253.624L5191.55 247.83L5193.1 247.211L5189.05 242.655L5190.6 242.124L5188.63 239.47L5189.34 239.449L5187.46 235.379L5190.14 237.701L5194.03 237.524L5194.05 235.711L5197.61 236.617L5197.72 234.229L5198.72 234.207L5197.5 230.956L5198.74 231.708L5195.6 226.511L5197.5 227.153L5193.87 220.098L5197.35 221.801L5198.58 220.585L5200.66 220.872L5201.37 219.346L5202.65 219.235L5200.6 215.808L5201.97 215.653L5200.44 209.461L5202.57 211.208L5203.49 210.898L5203.27 207.581L5204.22 208.001L5203.01 204.839L5203.71 204.728L5202.76 200.106L5204.4 201.167L5203.45 194.29L5205.57 194.82L5205.44 191.724L5203.45 187.832L5204.33 187.832L5202.12 179.694L5207.17 186.107L5208.8 185.886L5209.51 189.026L5211.5 192.211L5212.56 190.221L5214.37 194.422L5216.1 196.589L5216.68 198.049L5217.82 196.015L5219.86 199.376L5220.88 199.685L5222.16 202.693L5223.71 202.738L5224.68 204.197L5225.65 201.499L5228.62 206.144L5229.99 206.055L5230.72 209.151L5232.18 208.621L5233.53 209.151L5234.65 207.072L5235.27 208.156L5237.53 203.025L5239.65 208.377L5240.69 208.089L5241.53 213.309L5242.26 212.357L5243.74 216.405L5246.02 215.631L5246.68 216.869L5249.69 214.591L5250.22 215.874L5254.2 209.991L5255.55 216.161L5257.15 216.05L5257.56 220.518L5258.49 218.97L5259.95 225.869L5261.48 224.808L5262.65 227.75L5264.82 226.024L5265.64 227.683L5268.87 225.98L5269.64 226.224L5271.76 222.995L5271.76 226.976L5273.31 226.755L5272.93 234.295L5274.35 233.234L5273.8 240.709L5275.37 240.31L5276.3 243.96L5279.06 244.446L5281.43 242.213L5282.13 243.54L5285.36 240.2C5285.36 240.2 5285.67 242.633 5284.41 245.243L5286.18 245.353L5284.01 248.825L5285.61 249.665L5283.26 254.42L5285.23 254.221L5281.94 260.811L5284.61 261.032L5282.07 264.925L5281.27 266.539L5282.09 266.384L5279.04 268.507L5279.97 268.419L5278.18 270.674L5280.61 270.519L5279.1 272.842L5278.93 274.368L5277.11 274.965L5277.27 275.915L5275.85 276.757L5275.26 278.26L5272.71 278.769L5272.27 280.25C5272.27 280.25 5261.66 280.405 5250.11 289.384" fill="#aaaf46" fill-rule="nonzero" opacity="1" stroke="none" vectornator:layerName="path"/>
<path d="M5272.15 257.75C5269.34 260.981 5266.56 264.248 5263.84 267.567C5261.13 270.887 5258.47 274.255 5255.95 277.737C5254.7 279.482 5253.48 281.252 5252.35 283.093C5251.79 284.014 5251.25 284.951 5250.76 285.926C5250.73 285.992 5250.7 286.058 5250.66 286.125L5250.3 284.903C5250.07 284.177 5249.81 283.46 5249.56 282.738L5248.82 280.577C5248.81 280.549 5248.8 280.523 5248.79 280.496C5248.83 280.303 5248.88 280.11 5248.92 279.917L5249.02 279.502L5249.14 279.09L5249.37 278.263L5249.62 277.44L5249.88 276.617L5250.15 275.797C5250.87 273.613 5251.66 271.444 5252.47 269.284C5254.1 264.967 5255.82 260.682 5257.59 256.412C5259.35 252.143 5261.15 247.89 5262.98 243.648C5264.82 239.406 5266.67 235.174 5268.56 230.956C5266.6 235.142 5264.68 239.344 5262.77 243.554C5260.87 247.767 5259 251.99 5257.16 256.232C5255.33 260.475 5253.53 264.735 5251.82 269.035C5250.98 271.188 5250.15 273.349 5249.38 275.538L5249.1 276.359L5248.83 277.187L5248.56 278.017L5248.31 278.855C5248.29 278.937 5248.26 279.019 5248.24 279.1C5248.15 278.882 5248.07 278.664 5247.98 278.446L5247.14 276.321C5247 275.963 5246.84 275.623 5246.69 275.275L5246.24 274.237C5245.85 273.356 5245.47 272.471 5245.09 271.59L5252.37 220.341L5244.42 270.087L5242.58 265.961L5240.71 261.845C5239.47 259.099 5238.2 256.368 5236.94 253.631C5236.6 252.89 5236.25 252.15 5235.91 251.409L5237.37 212.159L5235.12 249.697C5232 242.98 5228.85 236.275 5225.69 229.581L5226.56 209.925L5225.23 228.598C5224.02 226.038 5222.81 223.477 5221.59 220.918C5220.54 218.695 5219.48 216.474 5218.42 214.253L5219.2 203.556L5217.99 213.34C5216.01 209.175 5214.02 205.012 5212.03 200.852C5212.03 200.842 5212.03 200.834 5212.04 200.825L5212.76 195.926L5211.66 200.083C5209.78 196.16 5207.9 192.238 5206.02 188.319C5207.86 192.408 5209.69 196.502 5211.53 200.595L5211.49 200.714C5211.49 200.723 5211.49 200.734 5211.49 200.744C5211.47 200.895 5211.57 201.036 5211.72 201.058C5211.73 201.059 5211.73 201.058 5211.73 201.059C5213.4 204.78 5215.06 208.501 5216.72 212.226L5205.79 204.086L5217.17 213.243C5218.37 215.929 5219.56 218.615 5220.76 221.302C5221.53 223.045 5222.3 224.79 5223.07 226.535L5206.86 216.824L5223.45 227.384C5226.18 233.561 5228.9 239.741 5231.59 245.931L5204.47 229.32L5232.22 247.367C5233.23 249.704 5234.25 252.042 5235.26 254.383C5236.44 257.148 5237.64 259.908 5238.81 262.68L5239.91 265.279L5199.29 242.368L5240.49 266.634L5240.57 266.835L5242.31 270.997C5242.89 272.382 5243.44 273.778 5244.01 275.168L5244.43 276.211C5244.57 276.559 5244.72 276.906 5244.84 277.255L5245.47 278.959C5245.27 278.84 5245.07 278.724 5244.87 278.609C5243.78 278.006 5242.67 277.473 5241.55 276.968C5239.3 275.964 5237 275.087 5234.69 274.258C5230.07 272.607 5225.39 271.158 5220.69 269.784C5215.99 268.414 5211.26 267.133 5206.52 265.906C5201.78 264.683 5197.03 263.507 5192.26 262.403C5197.01 263.582 5201.74 264.831 5206.46 266.129C5211.18 267.429 5215.88 268.784 5220.56 270.226C5225.23 271.67 5229.88 273.191 5234.45 274.907C5236.74 275.768 5239.01 276.676 5241.21 277.702C5242.31 278.216 5243.4 278.759 5244.44 279.361C5244.96 279.668 5245.48 279.977 5245.96 280.324C5245.97 280.328 5245.97 280.334 5245.98 280.34C5246.11 280.704 5246.25 281.071 5246.37 281.44L5247.04 283.565C5247.26 284.275 5247.5 284.979 5247.71 285.693L5247.97 286.644C5247.96 286.64 5247.95 286.636 5247.94 286.633C5247.09 286.24 5246.21 285.964 5245.32 285.729C5243.55 285.271 5241.75 285.003 5239.95 284.808C5236.35 284.427 5232.74 284.338 5229.13 284.349C5225.53 284.368 5221.93 284.505 5218.33 284.715C5214.74 284.929 5211.14 285.209 5207.56 285.58C5211.15 285.285 5214.75 285.083 5218.34 284.945C5221.94 284.812 5225.54 284.752 5229.13 284.811C5232.72 284.875 5236.32 285.041 5239.87 285.494C5241.64 285.724 5243.41 286.028 5245.11 286.507C5245.96 286.751 5246.8 287.034 5247.57 287.414C5247.82 287.533 5248.05 287.662 5248.28 287.801L5248.29 287.845C5249.83 293.587 5250.91 299.453 5251.6 305.36C5251.91 308.318 5252.17 311.28 5252.3 314.248C5252.36 315.732 5252.41 317.215 5252.42 318.695C5252.43 319.436 5252.41 320.174 5252.41 320.913L5252.38 322.015L5252.36 322.559L5252.35 322.831L5252.34 323.086L5252.34 323.127C5252.34 323.14 5252.34 323.152 5252.34 323.164C5252.31 324.182 5253.11 325.029 5254.13 325.057C5255.15 325.084 5255.99 324.283 5256.02 323.264L5256.03 322.956L5256.04 322.663L5256.04 322.08L5256.04 320.924C5256.02 320.157 5256.02 319.389 5255.99 318.625C5255.94 317.096 5255.85 315.572 5255.75 314.049C5255.54 311.005 5255.2 307.975 5254.79 304.954C5253.95 299.03 5252.73 293.158 5251.04 287.412C5251.2 287.04 5251.36 286.67 5251.54 286.305C5251.99 285.355 5252.5 284.425 5253.04 283.507C5254.12 281.674 5255.3 279.893 5256.52 278.137C5258.96 274.627 5261.55 271.219 5264.2 267.855C5266.86 264.493 5269.57 261.18 5272.33 257.9C5275.09 254.62 5277.88 251.369 5280.72 248.162C5277.82 251.318 5274.97 254.519 5272.15 257.75" fill="#7d8231" fill-rule="nonzero" opacity="1" stroke="none" vectornator:layerName="path"/>
</g>
</g>
</svg>
