<?xml version="1.0" encoding="UTF-8" standalone="no"?>
<!DOCTYPE svg PUBLIC "-//W3C//DTD SVG 1.1//EN" "http://www.w3.org/Graphics/SVG/1.1/DTD/svg11.dtd">
<!-- Created with Vectornator (http://vectornator.io/) -->
<svg height="100%" stroke-miterlimit="10" style="fill-rule:nonzero;clip-rule:evenodd;stroke-linecap:round;stroke-linejoin:round;" version="1.1" viewBox="5196.93 2000 1316.72 1903.02" width="100%" xml:space="preserve" xmlns="http://www.w3.org/2000/svg" xmlns:vectornator="http://vectornator.io" xmlns:xlink="http://www.w3.org/1999/xlink">
<defs/>
<clipPath id="ArtboardFrame">
<rect height="1903.02" width="1316.72" x="5196.93" y="2000"/>
</clipPath>
<g clip-path="url(#ArtboardFrame)" id="Layer" vectornator:layerName="Layer">
<g opacity="1" vectornator:layerName="Группа 5">
<path d="M6041.45 3436C6041.45 3436 5833 3470.75 5755.41 3555.28L5742.09 3546.6L5687.08 3585.97L5685.92 3568.6L5657.55 3587.71L5652.92 3576.71L5628.6 3585.97L5630.33 3579.03L5577.07 3576.71L5605.44 3564.55L5566.07 3556.44L5574.75 3552.96L5524.95 3562.23L5531.91 3554.12L5471.68 3541.96L5491.37 3525.75L5405.67 3499.69L5421.31 3484.07L5336.77 3461.48L5359.35 3456.27L5299.71 3434.27L5313.03 3429.05L5255.12 3387.36L5301.01 3379.84L5312.73 3365.93L5334.01 3358.99L5330.55 3352.91L5344.88 3344.23L5331.41 3333.8L5350.96 3327.72L5334.75 3308.32L5346.61 3307.45L5311.87 3277.35L5341.97 3258.24L5322 3242.6L5327.51 3237.68L5280.31 3212.79L5304.05 3194.25L5233.41 3140.99L5253.09 3132.29L5219.52 3096.69L5233.99 3093.51L5196.93 3047.47L5242.68 3060.79L5291.32 3043.41L5287.84 3014.17L5316.51 3011.87L5292.47 2959.45L5321.43 2967.85L5274.81 2892L5295.08 2883.89L5242.09 2824.25L5262.36 2817.31L5236.6 2782.56L5245.85 2782.28L5221.25 2729L5256.28 2759.4L5307.24 2757.08L5307.52 2733.35L5354.13 2745.21L5355.59 2713.95L5368.61 2713.65L5352.69 2671.09L5368.91 2680.95L5327.79 2612.91L5352.69 2621.31L5305.21 2528.95L5350.67 2551.24L5366.88 2535.32L5394.09 2539.08L5403.36 2519.11L5420.15 2517.65L5393.23 2472.79L5411.17 2470.76L5391.2 2389.69L5418.99 2412.56L5431.15 2408.51L5428.25 2365.08L5440.71 2370.59L5424.79 2329.19L5434.04 2327.73L5421.6 2267.23L5443.01 2281.12L5430.57 2191.08L5458.36 2198.03L5456.63 2157.49L5430.57 2106.55L5442.15 2106.55L5413.2 2000L5479.21 2083.96L5500.64 2081.07L5509.89 2122.17L5535.96 2163.87L5549.85 2137.81L5573.59 2192.81L5596.17 2221.19L5603.71 2240.29L5618.76 2213.67L5645.39 2257.67L5658.71 2261.72L5675.51 2301.09L5695.77 2301.68L5708.51 2320.79L5721.24 2285.47L5760.04 2346.27L5777.99 2345.11L5787.55 2385.64L5806.65 2378.69L5824.31 2385.64L5839.08 2358.43L5847.19 2372.61L5876.72 2305.44L5904.51 2375.51L5918.12 2371.73L5929.12 2440.07L5938.67 2427.61L5958.07 2480.6L5987.89 2470.47L5996.57 2486.68L6035.95 2456.85L6042.89 2473.65L6095.01 2396.64L6112.67 2477.41L6133.52 2475.96L6139.01 2534.45L6151.17 2514.19L6170.28 2604.51L6190.27 2590.61L6205.6 2629.12L6233.97 2606.53L6244.69 2628.25L6286.96 2605.96L6297.09 2609.15L6324.88 2566.88L6324.88 2618.99L6345.15 2616.09L6340.23 2714.81L6358.76 2700.92L6351.52 2798.77L6372.08 2793.56L6384.24 2841.33L6420.43 2847.71L6451.4 2818.47L6460.67 2835.84L6502.93 2792.12C6502.93 2792.12 6506.99 2823.96 6490.49 2858.13L6513.65 2859.57L6485.28 2905.03L6506.12 2916.03L6475.44 2978.28L6501.2 2975.67L6458.07 3061.95L6493.09 3064.84L6459.8 3115.8L6449.37 3136.93L6460.09 3134.91L6420.13 3162.69L6432.29 3161.55L6408.84 3191.07L6440.69 3189.04L6421 3219.44L6418.69 3239.43L6394.95 3247.24L6396.97 3259.68L6378.44 3270.69L6370.63 3290.37L6337.33 3297.04L6331.55 3316.43C6331.55 3316.43 6192.57 3318.45 6041.45 3436" fill="#519409" fill-rule="nonzero" opacity="1" stroke="none" vectornator:layerName="path"/>
<path d="M6329.99 3021.87C6293.13 3064.17 6256.77 3106.93 6221.21 3150.39C6185.69 3193.85 6150.87 3237.95 6117.92 3283.53C6101.51 3306.37 6085.49 3329.55 6070.73 3353.64C6063.37 3365.71 6056.28 3377.97 6049.92 3390.73C6049.49 3391.6 6049.08 3392.47 6048.65 3393.33L6043.88 3377.35C6040.87 3367.84 6037.44 3358.45 6034.24 3349L6024.48 3320.71C6024.35 3320.35 6024.21 3320 6024.08 3319.65C6024.68 3317.12 6025.29 3314.6 6025.89 3312.07L6027.21 3306.64L6028.72 3301.24L6031.75 3290.41L6035.04 3279.64L6038.37 3268.87L6041.91 3258.13C6051.37 3229.53 6061.69 3201.15 6072.31 3172.87C6093.64 3116.35 6116.23 3060.25 6139.28 3004.35C6162.39 2948.47 6186 2892.79 6209.96 2837.25C6233.95 2781.72 6258.2 2726.32 6282.91 2671.09C6257.29 2725.89 6232.11 2780.91 6207.2 2836.03C6182.32 2891.17 6157.77 2946.47 6133.73 3002C6109.73 3057.55 6086.19 3113.31 6063.87 3169.6C6052.76 3197.79 6041.93 3226.08 6031.92 3254.75L6028.17 3265.49L6024.61 3276.33L6021.11 3287.2L6017.84 3298.16C6017.53 3299.24 6017.24 3300.31 6016.93 3301.37C6015.8 3298.52 6014.65 3295.67 6013.55 3292.81L6002.48 3264.99C6000.69 3260.31 5998.63 3255.85 5996.68 3251.29L5990.76 3237.71C5985.71 3226.17 5980.73 3214.59 5975.69 3203.05L6070.99 2532.13L5966.96 3183.37L5942.83 3129.36L5918.36 3075.48C5902.09 3039.53 5885.49 3003.77 5869.03 2967.95C5864.55 2958.24 5860.01 2948.56 5855.52 2938.85L5874.69 2425.01L5845.12 2916.44C5804.29 2828.51 5763.13 2740.73 5721.75 2653.09L5733.12 2395.77L5715.67 2640.23C5699.83 2606.71 5683.96 2573.19 5668.08 2539.68C5654.28 2510.59 5640.44 2481.51 5626.61 2452.43L5636.71 2312.39L5620.93 2440.48C5594.97 2385.95 5568.96 2331.45 5542.88 2276.99C5542.92 2276.87 5542.96 2276.76 5542.97 2276.64L5552.45 2212.51L5538.07 2266.92C5513.48 2215.56 5488.85 2164.23 5464.16 2112.92C5488.27 2166.45 5512.29 2220.04 5536.29 2273.63L5535.88 2275.19C5535.85 2275.31 5535.83 2275.44 5535.8 2275.57C5535.51 2277.56 5536.88 2279.4 5538.85 2279.69C5538.91 2279.71 5538.96 2279.69 5539.01 2279.71C5560.81 2328.41 5582.59 2377.13 5604.29 2425.89L5461.25 2319.33L5610.24 2439.21C5625.88 2474.37 5641.52 2509.53 5657.12 2544.71C5667.23 2567.53 5677.32 2590.37 5687.43 2613.21L5475.16 2486.09L5692.35 2624.33C5728.09 2705.2 5763.71 2786.11 5799.01 2867.15L5443.89 2649.68L5807.17 2885.95C5820.49 2916.53 5833.79 2947.15 5847 2977.79C5862.52 3013.99 5878.21 3050.12 5893.51 3086.41L5907.93 3120.44L5376.15 2820.49L5915.44 3138.17L5916.56 3140.8L5939.25 3195.29C5946.92 3213.43 5954.11 3231.69 5961.53 3249.89L5967.07 3263.55C5968.88 3268.11 5970.85 3272.65 5972.45 3277.21L5980.67 3299.52C5978.05 3297.97 5975.44 3296.45 5972.83 3294.95C5958.6 3287.05 5944.03 3280.07 5929.31 3273.47C5899.85 3260.32 5869.81 3248.84 5839.59 3237.99C5779.11 3216.37 5717.81 3197.4 5656.27 3179.41C5594.71 3161.48 5532.83 3144.71 5470.79 3128.64C5408.72 3112.63 5346.51 3097.24 5284.08 3082.79C5346.27 3098.21 5408.23 3114.57 5470 3131.56C5531.77 3148.59 5593.33 3166.32 5654.53 3185.2C5715.71 3204.11 5776.6 3224.01 5836.47 3246.48C5866.37 3257.75 5896.05 3269.64 5924.92 3283.07C5939.33 3289.8 5953.56 3296.91 5967.23 3304.79C5973.99 3308.81 5980.76 3312.85 5987.07 3317.4C5987.16 3317.45 5987.24 3317.53 5987.33 3317.6C5989.11 3322.37 5990.87 3327.17 5992.48 3332L6001.29 3359.83C6004.17 3369.12 6007.28 3378.33 6009.99 3387.68L6013.36 3400.13C6013.25 3400.08 6013.16 3400.03 6013.07 3399.99C6001.91 3394.84 5990.36 3391.23 5978.77 3388.16C5955.55 3382.16 5932 3378.65 5908.44 3376.09C5861.28 3371.11 5814 3369.95 5766.8 3370.09C5719.6 3370.33 5672.45 3372.13 5625.39 3374.88C5578.32 3377.68 5531.31 3381.35 5484.43 3386.2C5531.39 3382.35 5578.45 3379.69 5625.53 3377.89C5672.6 3376.15 5719.71 3375.36 5766.77 3376.13C5813.8 3376.97 5860.88 3379.15 5907.37 3385.08C5930.59 3388.09 5953.71 3392.07 5976 3398.35C5987.11 3401.53 5998.07 3405.24 6008.21 3410.21C6011.39 3411.77 6014.48 3413.47 6017.45 3415.28L6017.61 3415.85C6037.77 3491.03 6051.89 3567.83 6060.87 3645.16C6065 3683.88 6068.43 3722.65 6070.09 3761.51C6070.89 3780.93 6071.51 3800.35 6071.61 3819.73C6071.77 3829.43 6071.57 3839.09 6071.53 3848.76L6071.2 3863.19L6070.93 3870.32L6070.8 3873.88L6070.63 3877.21L6070.6 3877.75C6070.59 3877.92 6070.59 3878.08 6070.57 3878.24C6070.21 3891.56 6080.72 3902.65 6094.04 3903.01C6107.36 3903.37 6118.45 3892.88 6118.81 3879.55L6118.93 3875.51L6118.99 3871.68L6119.07 3864.04L6119.03 3848.91C6118.83 3838.87 6118.76 3828.81 6118.36 3818.81C6117.72 3798.8 6116.59 3778.84 6115.25 3758.91C6112.52 3719.05 6108 3679.39 6102.75 3639.84C6091.75 3562.28 6075.65 3485.41 6053.65 3410.19C6055.64 3405.32 6057.81 3400.48 6060.08 3395.69C6066 3383.25 6072.75 3371.08 6079.79 3359.07C6093.91 3335.07 6109.4 3311.76 6125.31 3288.76C6157.27 3242.81 6191.24 3198.2 6225.92 3154.16C6260.64 3110.15 6296.21 3066.77 6332.28 3023.83C6368.39 2980.89 6404.93 2938.33 6442.15 2896.35C6404.19 2937.67 6366.87 2979.57 6329.99 3021.87" fill="#1d7f0f" fill-rule="nonzero" opacity="1" stroke="none" vectornator:layerName="path"/>
</g>
</g>
</svg>
