<?xml version="1.0" encoding="UTF-8" standalone="no"?>
<!DOCTYPE svg PUBLIC "-//W3C//DTD SVG 1.1//EN" "http://www.w3.org/Graphics/SVG/1.1/DTD/svg11.dtd">
<!-- Created with Vectornator (http://vectornator.io/) -->
<svg height="100%" stroke-miterlimit="10" style="fill-rule:nonzero;clip-rule:evenodd;stroke-linecap:round;stroke-linejoin:round;" version="1.1" viewBox="5185.6 179.694 1316.72 1903.02" width="100%" xml:space="preserve" xmlns="http://www.w3.org/2000/svg" xmlns:vectornator="http://vectornator.io" xmlns:xlink="http://www.w3.org/1999/xlink">
<defs/>
<clipPath id="ArtboardFrame">
<rect height="1903.02" width="1316.72" x="5185.6" y="179.694"/>
</clipPath>
<g clip-path="url(#ArtboardFrame)" id="Layer" vectornator:layerName="Layer">
<g opacity="1" vectornator:layerName="Группа 6">
<path d="M6030.12 1615.69C6030.12 1615.69 5821.67 1650.44 5744.08 1734.97L5730.76 1726.29L5675.75 1765.67L5674.59 1748.29L5646.22 1767.4L5641.59 1756.4L5617.27 1765.67L5619 1758.72L5565.74 1756.4L5594.11 1744.24L5554.74 1736.13L5563.42 1732.65L5513.62 1741.92L5520.58 1733.81L5460.35 1721.65L5480.04 1705.44L5394.34 1679.39L5409.98 1663.76L5325.44 1641.17L5348.02 1635.96L5288.38 1613.96L5301.7 1608.75L5243.79 1567.05L5289.68 1559.53L5301.4 1545.63L5322.68 1538.68L5319.22 1532.6L5333.55 1523.92L5320.08 1513.49L5339.63 1507.41L5323.42 1488.01L5335.28 1487.15L5300.54 1457.04L5330.64 1437.93L5310.67 1422.29L5316.18 1417.37L5268.98 1392.48L5292.72 1373.95L5222.08 1320.68L5241.76 1311.99L5208.19 1276.39L5222.66 1273.2L5185.6 1227.16L5231.35 1240.48L5279.99 1223.11L5276.51 1193.87L5305.18 1191.56L5281.14 1139.15L5310.1 1147.55L5263.48 1071.69L5283.75 1063.59L5230.76 1003.95L5251.03 997L5225.27 962.254L5234.52 961.974L5209.92 908.694L5244.95 939.094L5295.91 936.774L5296.19 913.04L5342.8 924.907L5344.26 893.64L5357.28 893.347L5341.36 850.787L5357.58 860.64L5316.46 792.6L5341.36 801L5293.88 708.64L5339.34 730.934L5355.55 715.014L5382.76 718.774L5392.03 698.8L5408.82 697.347L5381.9 652.48L5399.84 650.454L5379.87 569.387L5407.66 592.254L5419.82 588.2L5416.92 544.774L5429.38 550.28L5413.46 508.88L5422.71 507.427L5410.27 446.92L5431.68 460.814L5419.24 370.774L5447.03 377.72L5445.3 337.187L5419.24 286.24L5430.82 286.24L5401.87 179.694L5467.88 263.654L5489.31 260.76L5498.56 301.867L5524.63 343.56L5538.52 317.507L5562.26 372.507L5584.84 400.88L5592.38 419.987L5607.43 393.36L5634.06 437.36L5647.38 441.414L5664.18 480.787L5684.44 481.374L5697.18 500.48L5709.91 465.16L5748.71 525.96L5766.66 524.8L5776.22 565.334L5795.32 558.387L5812.98 565.334L5827.75 538.12L5835.86 552.307L5865.39 485.134L5893.18 555.2L5906.79 551.427L5917.79 619.76L5927.34 607.307L5946.74 660.294L5976.56 650.16L5985.24 666.374L6024.62 636.547L6031.56 653.347L6083.68 576.334L6101.34 657.107L6122.19 655.654L6127.68 714.147L6139.84 693.88L6158.95 784.2L6178.94 770.307L6194.27 808.814L6222.64 786.227L6233.36 807.947L6275.63 785.654L6285.76 788.84L6313.55 746.574L6313.55 798.68L6333.82 795.787L6328.9 894.507L6347.43 880.614L6340.19 978.467L6360.75 973.254L6372.91 1021.03L6409.1 1027.4L6440.07 998.16L6449.34 1015.53L6491.6 971.814C6491.6 971.814 6495.66 1003.65 6479.16 1037.83L6502.32 1039.27L6473.95 1084.72L6494.79 1095.72L6464.11 1157.97L6489.87 1155.36L6446.74 1241.64L6481.76 1244.53L6448.47 1295.49L6438.04 1316.63L6448.76 1314.6L6408.8 1342.39L6420.96 1341.24L6397.51 1370.76L6429.36 1368.73L6409.67 1399.13L6407.36 1419.12L6383.62 1426.93L6385.64 1439.37L6367.11 1450.39L6359.3 1470.07L6326 1476.73L6320.22 1496.12C6320.22 1496.12 6181.24 1498.15 6030.12 1615.69" fill="#aaaf46" fill-rule="nonzero" opacity="1" stroke="none" vectornator:layerName="path"/>
<path d="M6318.66 1201.56C6281.8 1243.87 6245.44 1286.63 6209.88 1330.08C6174.36 1373.55 6139.54 1417.64 6106.59 1463.23C6090.18 1486.07 6074.16 1509.24 6059.4 1533.33C6052.04 1545.4 6044.95 1557.67 6038.59 1570.43C6038.16 1571.29 6037.75 1572.16 6037.32 1573.03L6032.55 1557.04C6029.54 1547.53 6026.11 1538.15 6022.91 1528.69L6013.15 1500.4C6013.02 1500.04 6012.88 1499.69 6012.75 1499.35C6013.35 1496.81 6013.96 1494.29 6014.56 1491.76L6015.88 1486.33L6017.39 1480.93L6020.42 1470.11L6023.71 1459.33L6027.04 1448.56L6030.58 1437.83C6040.04 1409.23 6050.36 1380.84 6060.98 1352.56C6082.31 1296.04 6104.9 1239.95 6127.95 1184.04C6151.06 1128.16 6174.67 1072.48 6198.63 1016.95C6222.62 961.414 6246.87 906.014 6271.58 850.787C6245.96 905.587 6220.78 960.6 6195.87 1015.72C6170.99 1070.87 6146.44 1126.16 6122.4 1181.69C6098.4 1237.24 6074.86 1293 6052.54 1349.29C6041.43 1377.48 6030.6 1405.77 6020.59 1434.44L6016.84 1445.19L6013.28 1456.03L6009.78 1466.89L6006.51 1477.85C6006.2 1478.93 6005.91 1480 6005.6 1481.07C6004.47 1478.21 6003.32 1475.36 6002.22 1472.51L5991.15 1444.68C5989.36 1440 5987.3 1435.55 5985.35 1430.99L5979.43 1417.4C5974.38 1405.87 5969.4 1394.28 5964.36 1382.75L6059.66 711.827L5955.63 1363.07L5931.5 1309.05L5907.03 1255.17C5890.76 1219.23 5874.16 1183.47 5857.7 1147.64C5853.22 1137.93 5848.68 1128.25 5844.19 1118.55L5863.36 604.707L5833.79 1096.13C5792.96 1008.2 5751.8 920.427 5710.42 832.787L5721.79 575.467L5704.34 819.92C5688.5 786.4 5672.63 752.88 5656.75 719.374C5642.95 690.28 5629.11 661.2 5615.28 632.12L5625.38 492.08L5609.6 620.174C5583.64 565.64 5557.63 511.147 5531.55 456.68C5531.59 456.56 5531.63 456.454 5531.64 456.334L5541.12 392.2L5526.74 446.614C5502.15 395.254 5477.52 343.92 5452.83 292.614C5476.94 346.147 5500.96 399.734 5524.96 453.32L5524.55 454.88C5524.52 455 5524.5 455.134 5524.47 455.267C5524.18 457.254 5525.55 459.094 5527.52 459.387C5527.58 459.4 5527.63 459.387 5527.68 459.4C5549.48 508.107 5571.26 556.827 5592.96 605.587L5449.92 499.027L5598.91 618.907C5614.55 654.067 5630.19 689.227 5645.79 724.4C5655.9 747.227 5665.99 770.067 5676.1 792.907L5463.83 665.787L5681.02 804.027C5716.76 884.894 5752.38 965.8 5787.68 1046.84L5432.56 829.374L5795.84 1065.64C5809.16 1096.23 5822.46 1126.84 5835.67 1157.48C5851.19 1193.68 5866.88 1229.81 5882.18 1266.11L5896.6 1300.13L5364.82 1000.19L5904.11 1317.87L5905.23 1320.49L5927.92 1374.99C5935.59 1393.12 5942.78 1411.39 5950.2 1429.59L5955.74 1443.24C5957.55 1447.8 5959.52 1452.35 5961.12 1456.91L5969.34 1479.21C5966.72 1477.67 5964.11 1476.15 5961.5 1474.64C5947.27 1466.75 5932.7 1459.76 5917.98 1453.16C5888.52 1440.01 5858.48 1428.53 5828.26 1417.68C5767.78 1396.07 5706.48 1377.09 5644.94 1359.11C5583.38 1341.17 5521.5 1324.4 5459.46 1308.33C5397.39 1292.32 5335.18 1276.93 5272.75 1262.48C5334.94 1277.91 5396.9 1294.27 5458.67 1311.25C5520.44 1328.28 5582 1346.01 5643.2 1364.89C5704.38 1383.8 5765.27 1403.71 5825.14 1426.17C5855.04 1437.44 5884.72 1449.33 5913.59 1462.76C5928 1469.49 5942.23 1476.6 5955.9 1484.48C5962.66 1488.51 5969.43 1492.55 5975.74 1497.09C5975.83 1497.15 5975.91 1497.23 5976 1497.29C5977.78 1502.07 5979.54 1506.87 5981.15 1511.69L5989.96 1539.52C5992.84 1548.81 5995.95 1558.03 5998.66 1567.37L6002.03 1579.83C6001.92 1579.77 6001.83 1579.72 6001.74 1579.68C5990.58 1574.53 5979.03 1570.92 5967.44 1567.85C5944.22 1561.85 5920.67 1558.35 5897.11 1555.79C5849.95 1550.8 5802.67 1549.64 5755.47 1549.79C5708.27 1550.03 5661.12 1551.83 5614.06 1554.57C5566.99 1557.37 5519.98 1561.04 5473.1 1565.89C5520.06 1562.04 5567.12 1559.39 5614.2 1557.59C5661.27 1555.84 5708.38 1555.05 5755.44 1555.83C5802.47 1556.67 5849.55 1558.84 5896.04 1564.77C5919.26 1567.79 5942.38 1571.76 5964.67 1578.04C5975.78 1581.23 5986.74 1584.93 5996.88 1589.91C6000.06 1591.47 6003.15 1593.16 6006.12 1594.97L6006.28 1595.55C6026.44 1670.72 6040.56 1747.52 6049.54 1824.85C6053.67 1863.57 6057.1 1902.35 6058.76 1941.2C6059.56 1960.63 6060.18 1980.04 6060.28 1999.43C6060.44 2009.12 6060.24 2018.79 6060.2 2028.45L6059.87 2042.88L6059.6 2050.01L6059.47 2053.57L6059.3 2056.91L6059.27 2057.44C6059.26 2057.61 6059.26 2057.77 6059.24 2057.93C6058.88 2071.25 6069.39 2082.35 6082.71 2082.71C6096.03 2083.07 6107.12 2072.57 6107.48 2059.24L6107.6 2055.2L6107.66 2051.37L6107.74 2043.73L6107.7 2028.6C6107.5 2018.56 6107.43 2008.51 6107.03 1998.51C6106.39 1978.49 6105.26 1958.53 6103.92 1938.6C6101.19 1898.75 6096.67 1859.08 6091.42 1819.53C6080.42 1741.97 6064.32 1665.11 6042.32 1589.88C6044.31 1585.01 6046.48 1580.17 6048.75 1575.39C6054.67 1562.95 6061.42 1550.77 6068.46 1538.76C6082.58 1514.76 6098.07 1491.45 6113.98 1468.45C6145.94 1422.51 6179.91 1377.89 6214.59 1333.85C6249.31 1289.84 6284.88 1246.47 6320.95 1203.52C6357.06 1160.59 6393.6 1118.03 6430.82 1076.04C6392.86 1117.36 6355.54 1159.27 6318.66 1201.56" fill="#7d8231" fill-rule="nonzero" opacity="1" stroke="none" vectornator:layerName="path"/>
</g>
</g>
</svg>
